<?xml version="1.0" encoding="UTF-8"?>
<!DOCTYPE svg PUBLIC "-//W3C//DTD SVG 1.1//EN" "http://www.w3.org/Graphics/SVG/1.1/DTD/svg11.dtd">
<svg xmlns="http://www.w3.org/2000/svg" version="1.1" width="128px" height="128px" style="shape-rendering:geometricPrecision; text-rendering:geometricPrecision; image-rendering:optimizeQuality; fill-rule:evenodd; clip-rule:evenodd" xmlns:xlink="http://www.w3.org/1999/xlink">
<g><path style="opacity:0.953" fill="#fefffe" d="M 44.5,4.5 C 56.5,4.5 68.5,4.5 80.5,4.5C 79.1066,17.8277 77.7732,31.161 76.5,44.5C 89.5168,39.6596 102.35,34.3262 115,28.5C 119.04,39.6195 122.873,50.7862 126.5,62C 113.167,65.3333 99.8333,68.6667 86.5,72C 94.6483,81.7827 103.148,91.2827 112,100.5C 112.711,102.367 112.211,103.867 110.5,105C 101.72,110.78 93.2202,116.946 85,123.5C 77.4165,112.002 70.0832,100.335 63,88.5C 55.9168,100.335 48.5835,112.002 41,123.5C 32,116.833 23,110.167 14,103.5C 14.044,101.721 14.7107,100.055 16,98.5C 24.1857,89.9487 32.0191,81.1153 39.5,72C 26.5539,68.5134 13.5539,65.1801 0.5,62C 4.12704,50.7862 7.96037,39.6195 12,28.5C 23.6667,33.5 35.3333,38.5 47,43.5C 46.958,30.4529 46.1246,17.4529 44.5,4.5 Z"/></g>
</svg>
